<svg width="20" height="15" viewBox="0 0 20 15" fill="none" xmlns="http://www.w3.org/2000/svg">
<path d="M19.0833 6.22314H18.2396L16.0693 1.34033C15.9711 1.11942 15.8109 0.931722 15.6082 0.799992C15.4054 0.668261 15.1689 0.598147 14.9271 0.598145H5.73959C5.49783 0.598147 5.26125 0.668261 5.05852 0.799992C4.8558 0.931722 4.69562 1.11942 4.59741 1.34033L2.42709 6.22314H1.58334C1.41758 6.22314 1.25861 6.28899 1.1414 6.4062C1.02419 6.52341 0.958344 6.68238 0.958344 6.84814C0.958344 7.01391 1.02419 7.17288 1.1414 7.29009C1.25861 7.4073 1.41758 7.47314 1.58334 7.47314H2.20834V13.7231C2.20834 14.0547 2.34004 14.3726 2.57446 14.607C2.80888 14.8414 3.12682 14.9731 3.45834 14.9731H5.33334C5.66486 14.9731 5.98281 14.8414 6.21723 14.607C6.45165 14.3726 6.58334 14.0547 6.58334 13.7231V12.4731H14.0833V13.7231C14.0833 14.0547 14.215 14.3726 14.4495 14.607C14.6839 14.8414 15.0018 14.9731 15.3333 14.9731H17.2083C17.5399 14.9731 17.8578 14.8414 18.0922 14.607C18.3266 14.3726 18.4583 14.0547 18.4583 13.7231V7.47314H19.0833C19.2491 7.47314 19.4081 7.4073 19.5253 7.29009C19.6425 7.17288 19.7083 7.01391 19.7083 6.84814C19.7083 6.68238 19.6425 6.52341 19.5253 6.4062C19.4081 6.28899 19.2491 6.22314 19.0833 6.22314ZM5.73959 1.84814H14.9271L16.8716 6.22314H3.79506L5.73959 1.84814ZM5.33334 13.7231H3.45834V12.4731H5.33334V13.7231ZM15.3333 13.7231V12.4731H17.2083V13.7231H15.3333ZM17.2083 11.2231H3.45834V7.47314H17.2083V11.2231ZM4.70834 9.34814C4.70834 9.18238 4.77419 9.02341 4.8914 8.9062C5.00861 8.78899 5.16758 8.72314 5.33334 8.72314H6.58334C6.7491 8.72314 6.90807 8.78899 7.02529 8.9062C7.1425 9.02341 7.20834 9.18238 7.20834 9.34814C7.20834 9.5139 7.1425 9.67288 7.02529 9.79009C6.90807 9.9073 6.7491 9.97314 6.58334 9.97314H5.33334C5.16758 9.97314 5.00861 9.9073 4.8914 9.79009C4.77419 9.67288 4.70834 9.5139 4.70834 9.34814ZM13.4583 9.34814C13.4583 9.18238 13.5242 9.02341 13.6414 8.9062C13.7586 8.78899 13.9176 8.72314 14.0833 8.72314H15.3333C15.4991 8.72314 15.6581 8.78899 15.7753 8.9062C15.8925 9.02341 15.9583 9.18238 15.9583 9.34814C15.9583 9.5139 15.8925 9.67288 15.7753 9.79009C15.6581 9.9073 15.4991 9.97314 15.3333 9.97314H14.0833C13.9176 9.97314 13.7586 9.9073 13.6414 9.79009C13.5242 9.67288 13.4583 9.5139 13.4583 9.34814Z" fill="black"/>
</svg>
