<svg width="14" height="17" viewBox="0 0 14 17" fill="none" xmlns="http://www.w3.org/2000/svg">
<path d="M1.66662 16.8064C1.20829 16.8064 0.815789 16.6431 0.489122 16.3164C0.162456 15.9898 -0.000599917 15.5975 -4.43615e-05 15.1398V1.80644C-4.43615e-05 1.34811 0.163289 0.955605 0.489955 0.628938C0.816622 0.302272 1.20884 0.139216 1.66662 0.139772H13.3333V1.80644H11.6666V3.47311C11.6666 3.70922 11.5866 3.90727 11.4266 4.06727C11.2666 4.22727 11.0688 4.30699 10.8333 4.30644H4.16662C3.93051 4.30644 3.73246 4.22644 3.57246 4.06644C3.41246 3.90644 3.33273 3.70866 3.33329 3.47311V1.80644H1.66662V15.1398H5.04162C4.51384 14.7648 4.09718 14.2889 3.79162 13.7123C3.48607 13.1356 3.33329 12.5003 3.33329 11.8064V7.63977H11.6666V11.8064C11.6666 12.5009 11.5138 13.1364 11.2083 13.7131C10.9027 14.2898 10.4861 14.7653 9.95829 15.1398H13.3333V16.8064H1.66662ZM7.49996 14.3064C8.1944 14.3064 8.78468 14.0634 9.27079 13.5773C9.7569 13.0912 9.99996 12.5009 9.99996 11.8064V9.30644H4.99996V11.8064C4.99996 12.5009 5.24301 13.0912 5.72912 13.5773C6.21523 14.0634 6.80551 14.3064 7.49996 14.3064ZM7.49996 6.80644C7.73607 6.80644 7.93412 6.72644 8.09412 6.56644C8.25412 6.40644 8.33384 6.20866 8.33329 5.97311C8.33329 5.73699 8.25329 5.53894 8.09329 5.37894C7.93329 5.21894 7.73551 5.13922 7.49996 5.13977C7.26384 5.13977 7.06579 5.21977 6.90579 5.37977C6.74579 5.53977 6.66607 5.73755 6.66662 5.97311C6.66662 6.20922 6.74662 6.40727 6.90662 6.56727C7.06662 6.72727 7.2644 6.80699 7.49996 6.80644Z" fill="#171E1D"/>
</svg>
