<svg width="17" height="17" viewBox="0 0 17 17" fill="none" xmlns="http://www.w3.org/2000/svg">
<path d="M0.666672 9.97315C0.666672 9.07037 0.868061 8.17787 1.27084 7.29564C1.67362 6.41342 2.18056 5.56981 2.79167 4.76481C3.40278 3.95926 4.06612 3.20231 4.78167 2.49398C5.49723 1.78564 6.16028 1.16064 6.77084 0.618978C6.85417 0.549533 6.94445 0.497589 7.04167 0.463145C7.13889 0.4287 7.23612 0.4112 7.33334 0.410645C7.44445 0.410645 7.54501 0.428145 7.63501 0.463145C7.72501 0.498145 7.80501 0.550089 7.87501 0.618978C8.95834 1.57731 10.0383 2.64676 11.115 3.82731C12.1917 5.00787 12.9936 6.28564 13.5208 7.66064H11.7083C11.3195 6.86898 10.7639 6.03203 10.0417 5.14981C9.31945 4.26759 8.41667 3.3337 7.33334 2.34814C5.68056 3.86203 4.43417 5.25787 3.59417 6.53565C2.75417 7.81342 2.33389 8.95926 2.33334 9.97315C2.33334 11.4593 2.80556 12.692 3.75001 13.6715C4.69445 14.6509 5.88889 15.1404 7.33334 15.1398V16.8065C5.43056 16.8065 3.84362 16.1537 2.57251 14.8481C1.30139 13.5426 0.666117 11.9176 0.666672 9.97315ZM10.2292 16.9523C10.0764 17.0218 9.92 17.0254 9.76 16.9631C9.60001 16.9009 9.48556 16.7931 9.41667 16.6398L9.31251 16.4106C9.20139 16.1745 9.12139 15.9281 9.0725 15.6715C9.02362 15.4148 8.99945 15.1543 9.00001 14.8898C9.00001 14.5843 9.03473 14.2823 9.10417 13.984C9.17362 13.6856 9.27778 13.3973 9.41667 13.119C9.52778 12.8829 9.62501 12.6434 9.70834 12.4006C9.79167 12.1579 9.83334 11.9043 9.83334 11.6398C9.83334 11.4315 9.80889 11.2301 9.76 11.0356C9.71112 10.8412 9.64528 10.6468 9.56251 10.4523L9.54167 10.4106C9.47223 10.2579 9.46862 10.0981 9.53084 9.93148C9.59306 9.76481 9.70084 9.64676 9.85417 9.57731C10.0069 9.50787 10.1631 9.50453 10.3225 9.56731C10.4819 9.63009 10.5967 9.73759 10.6667 9.88981L10.7708 10.0773C10.882 10.3134 10.962 10.5634 11.0108 10.8273C11.0597 11.0912 11.0839 11.362 11.0833 11.6398C11.0833 11.9454 11.0486 12.244 10.9792 12.5356C10.9097 12.8273 10.8056 13.112 10.6667 13.3898C10.5556 13.6259 10.4583 13.869 10.375 14.119C10.2917 14.369 10.25 14.6259 10.25 14.8898C10.25 15.0843 10.2708 15.2754 10.3125 15.4631C10.3542 15.6509 10.4167 15.8348 10.5 16.0148L10.5417 16.119C10.6111 16.2718 10.6147 16.4315 10.5525 16.5981C10.4903 16.7648 10.3825 16.8829 10.2292 16.9523ZM12.7292 16.9523C12.5764 17.0218 12.42 17.0254 12.26 16.9631C12.1 16.9009 11.9856 16.7931 11.9167 16.6398L11.8125 16.4106C11.7014 16.1745 11.6214 15.9281 11.5725 15.6715C11.5236 15.4148 11.4994 15.1543 11.5 14.8898C11.5 14.5843 11.5347 14.2823 11.6042 13.984C11.6736 13.6856 11.7778 13.3973 11.9167 13.119C12.0278 12.8829 12.125 12.6434 12.2083 12.4006C12.2917 12.1579 12.3333 11.9043 12.3333 11.6398C12.3333 11.4315 12.3089 11.2301 12.26 11.0356C12.2111 10.8412 12.1453 10.6468 12.0625 10.4523L12.0417 10.4106C11.9722 10.2579 11.9689 10.0981 12.0317 9.93148C12.0945 9.76481 12.202 9.64676 12.3542 9.57731C12.5069 9.50787 12.6633 9.50453 12.8233 9.56731C12.9833 9.63009 13.0978 9.73759 13.1667 9.88981L13.2708 10.0773C13.382 10.3273 13.462 10.5809 13.5108 10.8381C13.5597 11.0954 13.5839 11.3626 13.5833 11.6398C13.5833 11.9454 13.5486 12.244 13.4792 12.5356C13.4097 12.8273 13.3056 13.112 13.1667 13.3898C13.0556 13.6259 12.9583 13.869 12.875 14.119C12.7917 14.369 12.75 14.6259 12.75 14.8898C12.75 15.0843 12.7708 15.2754 12.8125 15.4631C12.8542 15.6509 12.9167 15.8348 13 16.0148L13.0417 16.119C13.1111 16.2718 13.1147 16.4315 13.0525 16.5981C12.9903 16.7648 12.8825 16.8829 12.7292 16.9523ZM14.8542 9.57731C15.0069 9.50787 15.1633 9.50453 15.3233 9.56731C15.4833 9.63009 15.5978 9.73759 15.6667 9.88981L15.7708 10.0773C15.882 10.3134 15.962 10.5634 16.0108 10.8273C16.0597 11.0912 16.0839 11.362 16.0833 11.6398C16.0833 11.9454 16.0486 12.2476 15.9792 12.5465C15.9097 12.8454 15.8056 13.1331 15.6667 13.4098C15.5556 13.6459 15.4583 13.8856 15.375 14.129C15.2917 14.3723 15.25 14.6256 15.25 14.889C15.25 15.0834 15.2708 15.2745 15.3125 15.4623C15.3542 15.6501 15.4167 15.834 15.5 16.014L15.5417 16.1181C15.5833 16.2015 15.6042 16.2848 15.6042 16.3681C15.6042 16.4515 15.5903 16.5279 15.5625 16.5973C15.5347 16.6668 15.4931 16.7329 15.4375 16.7956C15.382 16.8584 15.3125 16.9104 15.2292 16.9515C15.0764 17.0209 14.92 17.0245 14.76 16.9623C14.6 16.9001 14.4856 16.7926 14.4167 16.6398L14.3125 16.4106C14.2014 16.1745 14.1214 15.9281 14.0725 15.6715C14.0236 15.4148 13.9994 15.1543 14 14.8898C14 14.5843 14.0347 14.2823 14.1042 13.984C14.1736 13.6856 14.2778 13.3973 14.4167 13.119C14.5278 12.8829 14.625 12.6434 14.7083 12.4006C14.7917 12.1579 14.8333 11.9043 14.8333 11.6398C14.8333 11.4315 14.8089 11.2301 14.76 11.0356C14.7111 10.8412 14.6453 10.6468 14.5625 10.4523L14.5417 10.4106C14.4722 10.2579 14.4689 10.0981 14.5317 9.93148C14.5945 9.76481 14.702 9.64676 14.8542 9.57731Z" fill="#171E1D"/>
</svg>
