<svg width="14" height="20" viewBox="0 0 14 20" fill="none" xmlns="http://www.w3.org/2000/svg">
<path d="M12.7213 4.24966L7.98069 2.82779L10.3244 1.65591C10.4725 1.58132 10.5848 1.45097 10.6368 1.29355C10.6887 1.13612 10.676 0.964505 10.6014 0.816461C10.5268 0.668416 10.3965 0.556066 10.239 0.504128C10.0816 0.452189 9.90998 0.464915 9.76194 0.539508L6.13538 2.35201C4.50552 2.39436 2.95658 3.07129 1.8184 4.23866C0.680213 5.40603 0.0427047 6.9716 0.041626 8.60201V16.7231C0.041626 16.8889 0.107474 17.0478 0.224684 17.165C0.341895 17.2823 0.500866 17.3481 0.666626 17.3481C0.832386 17.3481 0.991357 17.2823 1.10857 17.165C1.22578 17.0478 1.29163 16.8889 1.29163 16.7231V14.2231H2.54163V18.5981C2.54163 18.9296 2.67332 19.2476 2.90774 19.482C3.14216 19.7164 3.46011 19.8481 3.79163 19.8481H8.79163C9.12315 19.8481 9.44109 19.7164 9.67551 19.482C9.90993 19.2476 10.0416 18.9296 10.0416 18.5981V8.5981C10.0404 7.71231 9.72607 6.85547 9.15423 6.17899C8.58239 5.50251 7.78984 5.04993 6.91663 4.90123V3.81294L12.3619 5.44654C12.4411 5.47234 12.5247 5.48204 12.6077 5.47509C12.6907 5.46813 12.7715 5.44465 12.8453 5.40603C12.9191 5.36741 12.9844 5.31443 13.0375 5.2502C13.0905 5.18597 13.1301 5.11178 13.1541 5.032C13.1781 4.95223 13.1858 4.86847 13.1769 4.78565C13.1681 4.70282 13.1427 4.62261 13.1024 4.54973C13.0621 4.47684 13.0076 4.41275 12.9422 4.36122C12.8767 4.30969 12.8016 4.27176 12.7213 4.24966ZM1.29163 12.9731V8.5981C1.29314 7.38083 1.73818 6.20583 2.54346 5.293C3.34873 4.38016 4.45905 3.79205 5.66663 3.63873V4.90123C4.79341 5.04993 4.00086 5.50251 3.42902 6.17899C2.85719 6.85547 2.54287 7.71231 2.54163 8.5981V12.9731H1.29163ZM8.79163 18.5981H3.79163V14.2231H8.79163V18.5981ZM8.79163 8.5981V12.9731H3.79163V8.5981C3.79163 7.93506 4.05502 7.29918 4.52386 6.83033C4.9927 6.36149 5.62858 6.0981 6.29163 6.0981C6.95467 6.0981 7.59055 6.36149 8.05939 6.83033C8.52823 7.29918 8.79163 7.93506 8.79163 8.5981Z" fill="#171E1D"/>
</svg>
