<svg width="19" height="21" viewBox="0 0 19 21" fill="none" xmlns="http://www.w3.org/2000/svg">
<path d="M2.65834 8.16731H7.66501C8.10748 8.16731 8.53182 8.34308 8.8447 8.65595C9.15757 8.96883 9.33334 9.39317 9.33334 9.83564V18.1798C9.33334 18.6223 9.15757 19.0466 8.8447 19.3595C8.53182 19.6724 8.10748 19.8481 7.66501 19.8481H2.65834C1.73667 19.8481 0.990005 19.1015 0.990005 18.1798V9.83564C0.990005 9.39317 1.16578 8.96883 1.47865 8.65595C1.79152 8.34308 2.21587 8.16731 2.65834 8.16731ZM2.65834 8.16731H7.66667V6.31064C7.66656 6.22565 7.6497 6.14152 7.61705 6.06305C7.5844 5.98458 7.5366 5.91331 7.47638 5.85333C7.41617 5.79335 7.34472 5.74582 7.26613 5.71348C7.18753 5.68113 7.10333 5.66459 7.01834 5.66481H3.30501C3.13364 5.66481 2.96929 5.73283 2.84804 5.85392C2.72679 5.97501 2.65856 6.13928 2.65834 6.31064V8.16731ZM11 2.76648L10.6275 2.02064C10.4892 1.74356 10.2765 1.51048 10.0132 1.34753C9.74986 1.18459 9.44634 1.09823 9.13667 1.09814H1.82417M5.16167 12.339V15.6765M3.49334 14.0081H6.83001M5.16167 1.09814V5.66481M17.6767 12.7565C17.6767 13.5309 17.369 14.2736 16.8214 14.8212C16.2738 15.3688 15.5311 15.6765 14.7567 15.6765C13.9822 15.6765 13.2395 15.3688 12.6919 14.8212C12.1443 14.2736 11.8367 13.5309 11.8367 12.7565C11.8367 10.5665 14.7533 6.91564 14.7533 6.91564C14.7533 6.91564 17.6767 10.5665 17.6767 12.7565Z" stroke="#171E1D" stroke-width="1.5" stroke-linecap="round" stroke-linejoin="round"/>
</svg>
