<svg width="17" height="21" viewBox="0 0 17 21" fill="none" xmlns="http://www.w3.org/2000/svg">
<path d="M8.65097 0.89624C5.91363 0.89624 3.68662 3.12325 3.68662 5.86059V8.8392H2.69375C1.59861 8.8392 0.708008 9.72981 0.708008 10.8249V18.7679C0.708008 19.863 1.59861 20.7536 2.69375 20.7536H14.6082C15.7033 20.7536 16.5939 19.863 16.5939 18.7679V10.8249C16.5939 9.72981 15.7033 8.8392 14.6082 8.8392H13.6153V5.86059C13.6153 3.12325 11.3883 0.89624 8.65097 0.89624ZM14.6082 10.8249L14.6102 18.7679H2.69375V10.8249H14.6082ZM5.67236 8.8392V5.86059C5.67236 4.21838 7.00876 2.88198 8.65097 2.88198C10.2932 2.88198 11.6296 4.21838 11.6296 5.86059V8.8392H5.67236Z" fill="#787878"/>
</svg>
