<svg width="18" height="17" viewBox="0 0 18 17" fill="none" xmlns="http://www.w3.org/2000/svg">
<path d="M6.5 5.13973V9.3064M11.5 7.63973V11.8064M2.86682 14.834L5.43303 12.6955C6.0511 12.1804 6.9489 12.1804 7.56697 12.6955L10.433 15.0838C11.0511 15.5989 11.9489 15.5989 12.567 15.0838L15.9003 12.3061C16.2803 11.9894 16.5 11.5203 16.5 11.0257V2.75219C16.5 2.04565 15.676 1.65969 15.1332 2.112L12.567 4.25051C11.9489 4.76557 11.0511 4.76557 10.433 4.25051L7.56697 1.86213C6.9489 1.34706 6.0511 1.34706 5.43303 1.86213L2.09969 4.63991C1.7197 4.95656 1.5 5.42564 1.5 5.92027V14.1938C1.5 14.9003 2.32405 15.2863 2.86682 14.834Z" stroke="#171E1D" stroke-width="1.5" stroke-linecap="round"/>
</svg>
