<svg width="20" height="15" viewBox="0 0 20 15" fill="none" xmlns="http://www.w3.org/2000/svg">
<path d="M9.73963 8.95073L8.80795 9.88241L9.73764 11.7418L10.6524 10.7762L9.73963 8.95073ZM10.3325 12.9314L11.2035 14.6736L12.1183 13.708L11.2472 11.9659L10.3325 12.9314ZM17.4789 5.388L16.5755 6.34159L18.3108 7.17151L19.2142 6.21792L17.4789 5.388ZM13.7163 4.97409L15.3905 5.77484L16.2939 4.82128L14.6536 4.03675L13.7163 4.97409ZM12.3562 10.7953L13.4704 12.2809L14.3424 11.3603L13.2283 9.87476L12.3562 10.7953ZM12.4674 8.86034L11.3371 7.35323L10.4443 8.24609L11.5954 9.78085L12.4674 8.86034ZM12.0811 6.60925L13.514 7.75562L14.3767 6.84495L12.9705 5.71991L12.0811 6.60925ZM14.4935 8.53921L15.928 9.68675L16.7906 8.77609L15.3562 7.62859L14.4935 8.53921ZM13.9539 1.40624L12.9289 2.4312L11.9634 1.46566C11.5585 1.06082 11.0779 0.739682 10.549 0.520585C10.02 0.301488 9.45312 0.188721 8.88059 0.188721C8.30806 0.188721 7.74114 0.301488 7.21219 0.520585C6.68325 0.739682 6.20263 1.06082 5.7978 1.46566C5.78444 1.47898 5.77151 1.49257 5.75838 1.50605C5.30225 1.18471 4.76661 0.994831 4.20993 0.957145C3.65324 0.919459 3.0969 1.03541 2.60162 1.29234C2.10634 1.54928 1.69115 1.93732 1.40137 2.41412C1.11158 2.89092 0.95833 3.43817 0.958344 3.99612V13.4107H2.20834V3.99612C2.20834 3.66878 2.2978 3.34766 2.46706 3.06747C2.63632 2.78728 2.87895 2.55868 3.16871 2.40638C3.45847 2.25409 3.78434 2.18388 4.11111 2.20336C4.43788 2.22284 4.7531 2.33126 5.02272 2.51691C4.59027 3.34078 4.43224 4.28123 4.57165 5.2012C4.71107 6.12117 5.14066 6.97257 5.7978 7.63132L6.7633 8.59683L5.82893 9.53124L6.61018 10.3125L14.7352 2.18749L13.9539 1.40624ZM7.56014 7.62593L6.68166 6.74745C6.10413 6.16309 5.78131 5.37393 5.78372 4.55234C5.78613 3.73075 6.11356 2.94349 6.69451 2.36252C7.27545 1.78156 8.0627 1.45409 8.88429 1.45166C9.70588 1.44922 10.4951 1.77201 11.0794 2.34952L11.9579 3.22804L7.56014 7.62593Z" fill="black"/>
</svg>
