<svg width="17" height="17" viewBox="0 0 17 17" fill="none" xmlns="http://www.w3.org/2000/svg">
<path fill-rule="evenodd" clip-rule="evenodd" d="M8.95241 0.882498C8.89643 0.755513 8.80688 0.64797 8.69434 0.572591C8.5818 0.497213 8.45099 0.457153 8.31738 0.457153C8.18378 0.457153 8.05297 0.497213 7.94043 0.572591C7.82789 0.64797 7.73834 0.755513 7.68236 0.882498L5.67518 5.43586L0.918782 6.02663C0.786077 6.04303 0.660639 6.09889 0.557313 6.18758C0.453988 6.27627 0.3771 6.39409 0.335749 6.5271C0.294399 6.66011 0.290317 6.80273 0.323987 6.93809C0.357657 7.07345 0.427669 7.19588 0.525738 7.29088L4.04355 10.6949L3.1099 15.6143C3.08397 15.7515 3.09609 15.8935 3.14483 16.0236C3.19357 16.1538 3.27689 16.2666 3.38495 16.3488C3.49301 16.4309 3.62127 16.479 3.75459 16.4872C3.88791 16.4955 4.0207 16.4636 4.13727 16.3954L8.31738 13.946L12.4975 16.3954C12.6141 16.4639 12.7471 16.496 12.8806 16.4878C13.0141 16.4796 13.1426 16.4316 13.2508 16.3493C13.359 16.267 13.4424 16.1539 13.4911 16.0235C13.5398 15.8932 13.5518 15.7509 13.5256 15.6136L12.5919 10.6957L16.109 7.29088C16.2071 7.19588 16.2771 7.07345 16.3108 6.93809C16.3444 6.80273 16.3404 6.66011 16.299 6.5271C16.2577 6.39409 16.1808 6.27627 16.0775 6.18758C15.9741 6.09889 15.8487 6.04303 15.716 6.02663L10.9589 5.43513L8.95241 0.882498Z" fill="#FAC50A"/>
</svg>
