<svg width="17" height="17" viewBox="0 0 17 17" fill="none" xmlns="http://www.w3.org/2000/svg">
<path d="M3.66662 10.1398H5.33329L7.83329 12.6398H6.16662L3.66662 10.1398ZM1.99996 1.80644H2.83329V0.973104C2.83329 0.75209 2.92109 0.540128 3.07737 0.383848C3.23365 0.227568 3.44561 0.139771 3.66662 0.139771H6.99996C7.22097 0.139771 7.43293 0.227568 7.58921 0.383848C7.74549 0.540128 7.83329 0.75209 7.83329 0.973104V1.80644H9.49996V0.973104C9.49996 0.75209 9.58775 0.540128 9.74403 0.383848C9.90031 0.227568 10.1123 0.139771 10.3333 0.139771H13.6666C13.8876 0.139771 14.0996 0.227568 14.2559 0.383848C14.4122 0.540128 14.5 0.75209 14.5 0.973104V1.80644H15.3333C15.7753 1.80644 16.1992 1.98203 16.5118 2.29459C16.8244 2.60715 17 3.03108 17 3.4731V14.3064C17 14.7485 16.8244 15.1724 16.5118 15.4849C16.1992 15.7975 15.7753 15.9731 15.3333 15.9731V16.8064H12.8333V15.9731H4.49996V16.8064H1.99996V15.9731C1.55793 15.9731 1.13401 15.7975 0.821445 15.4849C0.508885 15.1724 0.33329 14.7485 0.33329 14.3064V3.4731C0.33329 3.03108 0.508885 2.60715 0.821445 2.29459C1.13401 1.98203 1.55793 1.80644 1.99996 1.80644ZM13.6666 4.30644C13.8876 4.30644 14.0996 4.39423 14.2559 4.55051C14.4122 4.7068 14.5 4.91876 14.5 5.13977C14.5 5.36078 14.4122 5.57275 14.2559 5.72903C14.0996 5.88531 13.8876 5.9731 13.6666 5.9731C13.4456 5.9731 13.2336 5.88531 13.0774 5.72903C12.9211 5.57275 12.8333 5.36078 12.8333 5.13977C12.8333 4.91876 12.9211 4.7068 13.0774 4.55051C13.2336 4.39423 13.4456 4.30644 13.6666 4.30644ZM10.3333 4.30644C10.5543 4.30644 10.7663 4.39423 10.9225 4.55051C11.0788 4.7068 11.1666 4.91876 11.1666 5.13977C11.1666 5.36078 11.0788 5.57275 10.9225 5.72903C10.7663 5.88531 10.5543 5.9731 10.3333 5.9731C10.1123 5.9731 9.90031 5.88531 9.74403 5.72903C9.58775 5.57275 9.49996 5.36078 9.49996 5.13977C9.49996 4.91876 9.58775 4.7068 9.74403 4.55051C9.90031 4.39423 10.1123 4.30644 10.3333 4.30644ZM15.3333 3.4731H1.99996V6.80644H15.3333V3.4731ZM1.99996 14.3064H15.3333V8.4731H1.99996V14.3064ZM3.66662 4.30644C3.88764 4.30644 4.0996 4.39423 4.25588 4.55051C4.41216 4.7068 4.49996 4.91876 4.49996 5.13977C4.49996 5.36078 4.41216 5.57275 4.25588 5.72903C4.0996 5.88531 3.88764 5.9731 3.66662 5.9731C3.44561 5.9731 3.23365 5.88531 3.07737 5.72903C2.92109 5.57275 2.83329 5.36078 2.83329 5.13977C2.83329 4.91876 2.92109 4.7068 3.07737 4.55051C3.23365 4.39423 3.44561 4.30644 3.66662 4.30644ZM9.49996 10.1398H11.1666L13.6666 12.6398H12L9.49996 10.1398Z" fill="#171E1D"/>
</svg>
