<svg width="20" height="21" viewBox="0 0 20 21" fill="none" xmlns="http://www.w3.org/2000/svg">
<path d="M18.3571 16.439C17.8831 15.3164 17.1953 14.2966 16.3319 13.4365C15.4712 12.574 14.4516 11.8863 13.3294 11.4114C13.3194 11.4064 13.3093 11.4039 13.2993 11.3988C14.8646 10.2682 15.8822 8.42648 15.8822 6.34859C15.8822 2.90638 13.0932 0.117432 9.65103 0.117432C6.20882 0.117432 3.41988 2.90638 3.41988 6.34859C3.41988 8.42648 4.43747 10.2682 6.00279 11.4014C5.99274 11.4064 5.98269 11.4089 5.97264 11.4139C4.84701 11.8888 3.83696 12.5697 2.97013 13.439C2.10759 14.2998 1.41989 15.3194 0.945004 16.4416C0.478477 17.5402 0.226868 18.718 0.203798 19.9114C0.203128 19.9382 0.207831 19.9649 0.217632 19.9899C0.227433 20.0148 0.242132 20.0376 0.260865 20.0568C0.279597 20.076 0.301983 20.0913 0.326703 20.1017C0.351424 20.1121 0.377979 20.1174 0.404803 20.1174H1.91234C2.02289 20.1174 2.11083 20.0295 2.11335 19.9215C2.1636 17.9818 2.94249 16.1652 4.31938 14.7883C5.744 13.3637 7.63596 12.5797 9.65103 12.5797C11.6661 12.5797 13.5581 13.3637 14.9827 14.7883C16.3596 16.1652 17.1385 17.9818 17.1887 19.9215C17.1912 20.032 17.2792 20.1174 17.3897 20.1174H18.8973C18.9241 20.1174 18.9506 20.1121 18.9754 20.1017C19.0001 20.0913 19.0225 20.076 19.0412 20.0568C19.0599 20.0376 19.0746 20.0148 19.0844 19.9899C19.0942 19.9649 19.0989 19.9382 19.0983 19.9114C19.0731 18.7104 18.8244 17.5421 18.3571 16.439V16.439ZM9.65103 10.6702C8.49777 10.6702 7.41234 10.2204 6.59576 9.40386C5.77918 8.58728 5.32943 7.50185 5.32943 6.34859C5.32943 5.19532 5.77918 4.10989 6.59576 3.29331C7.41234 2.47673 8.49777 2.02698 9.65103 2.02698C10.8043 2.02698 11.8897 2.47673 12.7063 3.29331C13.5229 4.10989 13.9726 5.19532 13.9726 6.34859C13.9726 7.50185 13.5229 8.58728 12.7063 9.40386C11.8897 10.2204 10.8043 10.6702 9.65103 10.6702Z" fill="#787878"/>
</svg>
